<svg xmlns="http://www.w3.org/2000/svg" width="256" height="256" viewBox="0 0 100 100"><rect width="100" height="100" rx="50" fill="#b5adb2"></rect><path fill="#fff" d="M28.27 61.99L26.56 56.82L15.58 56.82L13.37 63.70Q12.97 63.88 12.52 63.97Q12.07 64.06 11.44 64.06L11.44 64.06Q10.31 64.06 9.59 63.57Q8.87 63.07 8.87 62.08L8.87 62.08Q8.87 61.59 9.01 61.12Q9.14 60.64 9.37 60.06L9.37 60.06Q9.95 58.17 11.01 55.17Q12.07 52.18 13.26 48.85Q14.45 45.52 15.67 42.30Q16.88 39.09 17.78 36.79L17.78 36.79Q18.23 36.52 19.18 36.27Q20.12 36.03 21.11 36.03L21.11 36.03Q22.42 36.03 23.45 36.39Q24.49 36.75 24.85 37.65L24.85 37.65Q25.84 40.21 27.01 43.47Q28.18 46.74 29.35 50.20Q30.52 53.67 31.60 57.00Q32.68 60.33 33.53 63.03L33.53 63.03Q33.13 63.48 32.47 63.77Q31.82 64.06 30.92 64.06L30.92 64.06Q29.71 64.06 29.17 63.59Q28.63 63.12 28.27 61.99L28.27 61.99ZM21.29 40.21L21.07 40.21Q20.62 41.43 20.08 42.96Q19.54 44.49 18.95 46.17Q18.37 47.86 17.78 49.59Q17.20 51.33 16.66 52.95L16.66 52.95L25.52 52.95Q24.94 51.15 24.33 49.33Q23.72 47.50 23.16 45.84Q22.60 44.17 22.10 42.71Q21.61 41.25 21.29 40.21L21.29 40.21ZM60.13 64.29L60.13 64.29Q59.50 64.29 58.98 63.97Q58.46 63.66 57.88 63.07L57.88 63.07L55.98 61.14Q54.37 62.71 52.16 63.52Q49.95 64.33 47.26 64.33L47.26 64.33Q44.83 64.33 42.89 63.68Q40.96 63.03 39.61 61.84Q38.26 60.64 37.51 58.98Q36.77 57.31 36.77 55.29L36.77 55.29Q36.77 52.09 38.44 50.05Q40.10 48.00 42.62 47.05L42.62 47.05Q41.45 45.70 41.02 44.51Q40.59 43.32 40.59 42.01L40.59 42.01Q40.59 39.22 42.53 37.45Q44.47 35.67 48.07 35.67L48.07 35.67Q50.59 35.67 51.80 36.45Q53.02 37.24 53.02 38.41L53.02 38.41Q53.02 39.00 52.72 39.49Q52.43 39.99 52.03 40.35L52.03 40.35Q51.35 39.99 50.47 39.76Q49.59 39.54 48.65 39.54L48.65 39.54Q47.08 39.54 46.15 40.28Q45.23 41.02 45.23 42.33L45.23 42.33Q45.23 43.54 45.88 44.49Q46.54 45.43 47.80 46.74L47.80 46.74L55.54 54.66Q56.03 53.22 56.32 51.39Q56.62 49.57 56.62 47.46L56.62 47.46Q57.70 46.96 58.64 46.96L58.64 46.96Q59.90 46.96 60.42 47.68Q60.94 48.40 60.94 49.62L60.94 49.62Q60.94 51.69 60.37 53.87Q59.81 56.05 58.78 57.90L58.78 57.90L62.60 61.81Q62.47 62.94 61.81 63.61Q61.16 64.29 60.13 64.29ZM47.39 60.51L47.39 60.51Q48.70 60.51 50.25 60.03Q51.80 59.56 53.20 58.26L53.20 58.26L45.23 50.02Q43.70 50.52 42.55 51.80Q41.41 53.08 41.41 55.15L41.41 55.15Q41.41 57.58 42.98 59.05Q44.56 60.51 47.39 60.51ZM86.18 49.80L86.18 49.80Q86.18 47.14 85.41 45.23Q84.65 43.32 83.30 42.10Q81.95 40.89 80.15 40.30Q78.35 39.72 76.28 39.72L76.28 39.72Q73.89 39.72 72.32 40.03L72.32 40.03L72.32 59.88Q73.22 60.10 74.32 60.17Q75.42 60.24 76.55 60.24L76.55 60.24Q81.23 60.24 83.70 57.60Q86.18 54.97 86.18 49.80ZM91.13 49.75L91.13 49.75Q91.13 53.40 90.09 56.12Q89.06 58.84 87.15 60.64Q85.23 62.44 82.53 63.32Q79.83 64.20 76.55 64.20L76.55 64.20Q75.11 64.20 73.17 64.06Q71.24 63.93 69.58 63.39L69.58 63.39Q67.50 62.71 67.50 60.96L67.50 60.96L67.50 38.41Q67.50 37.65 67.93 37.22Q68.36 36.79 69.13 36.57L69.13 36.57Q70.70 36.07 72.55 35.91Q74.39 35.76 76.14 35.76L76.14 35.76Q79.47 35.76 82.24 36.61Q85.01 37.47 86.99 39.22Q88.97 40.98 90.05 43.61Q91.13 46.24 91.13 49.75Z"></path></svg>